<mxfile host="app.diagrams.net" modified="2020-08-09T09:46:26.260Z" agent="5.0 (Macintosh; Intel Mac OS X 10_15_5) AppleWebKit/537.36 (KHTML, like Gecko) Chrome/83.0.4103.106 Safari/537.36" etag="WQepiicBPiQBtOSkW5cX" scale="7" border="0" version="13.5.4" type="github">
  <diagram id="kgpKYQtTHZ0yAKxKKP6v" name="Page-1">
    <mxGraphModel dx="895" dy="575" grid="1" gridSize="10" guides="1" tooltips="1" connect="1" arrows="1" fold="1" page="1" pageScale="1" pageWidth="850" pageHeight="1100" math="0" shadow="0">
      <root>
        <mxCell id="0" />
        <mxCell id="1" parent="0" />
        <mxCell id="6WqIRxcDjvqxgw-ognjp-49" value="alt" style="shape=umlFrame;whiteSpace=wrap;html=1;width=30;height=15;" parent="1" vertex="1">
          <mxGeometry x="240" y="960" width="460" height="50" as="geometry" />
        </mxCell>
        <mxCell id="3nuBFxr9cyL0pnOWT2aG-1" value="运营后台" style="shape=umlLifeline;perimeter=lifelinePerimeter;container=1;collapsible=0;recursiveResize=0;rounded=0;shadow=0;strokeWidth=1;fillColor=#fff2cc;strokeColor=#d6b656;" parent="1" vertex="1">
          <mxGeometry x="20" y="60" width="100" height="1110" as="geometry" />
        </mxCell>
        <mxCell id="3nuBFxr9cyL0pnOWT2aG-2" value="" style="points=[];perimeter=orthogonalPerimeter;rounded=0;shadow=0;strokeWidth=1;fillColor=#dae8fc;strokeColor=#6c8ebf;" parent="3nuBFxr9cyL0pnOWT2aG-1" vertex="1">
          <mxGeometry x="45" y="70" width="10" height="780" as="geometry" />
        </mxCell>
        <mxCell id="3nuBFxr9cyL0pnOWT2aG-5" value="play_quiz" style="shape=umlLifeline;perimeter=lifelinePerimeter;container=1;collapsible=0;recursiveResize=0;rounded=0;shadow=0;strokeWidth=1;fillColor=#f8cecc;strokeColor=#b85450;" parent="1" vertex="1">
          <mxGeometry x="245" y="60" width="100" height="1110" as="geometry" />
        </mxCell>
        <mxCell id="3nuBFxr9cyL0pnOWT2aG-6" value="" style="points=[];perimeter=orthogonalPerimeter;rounded=0;shadow=0;strokeWidth=1;fillColor=#dae8fc;strokeColor=#6c8ebf;" parent="3nuBFxr9cyL0pnOWT2aG-5" vertex="1">
          <mxGeometry x="45" y="70" width="10" height="1020" as="geometry" />
        </mxCell>
        <mxCell id="3nuBFxr9cyL0pnOWT2aG-7" value="1.1:quizId" style="verticalAlign=bottom;endArrow=open;dashed=1;endSize=8;shadow=0;strokeWidth=1;fontSize=10;" parent="1" edge="1">
          <mxGeometry relative="1" as="geometry">
            <mxPoint x="74.19" y="149.00000000000003" as="targetPoint" />
            <mxPoint x="290" y="149" as="sourcePoint" />
          </mxGeometry>
        </mxCell>
        <mxCell id="3nuBFxr9cyL0pnOWT2aG-8" value="1:创建测评CreateQuiz:name,scene等基本信息" style="verticalAlign=bottom;endArrow=block;shadow=0;strokeWidth=1;fontSize=10;entryX=-0.086;entryY=0.005;entryDx=0;entryDy=0;entryPerimeter=0;" parent="1" source="3nuBFxr9cyL0pnOWT2aG-2" target="3nuBFxr9cyL0pnOWT2aG-6" edge="1">
          <mxGeometry relative="1" as="geometry">
            <mxPoint x="175" y="140" as="sourcePoint" />
            <mxPoint x="230" y="100" as="targetPoint" />
          </mxGeometry>
        </mxCell>
        <mxCell id="_IQ1lsEtTBxcvNftNDux-1" value="kiko_engine" style="shape=umlLifeline;perimeter=lifelinePerimeter;container=1;collapsible=0;recursiveResize=0;rounded=0;shadow=0;strokeWidth=1;fillColor=#fff2cc;strokeColor=#d6b656;" parent="1" vertex="1">
          <mxGeometry x="460" y="60" width="100" height="1110" as="geometry" />
        </mxCell>
        <mxCell id="6WqIRxcDjvqxgw-ognjp-17" value="" style="points=[];perimeter=orthogonalPerimeter;rounded=0;shadow=0;strokeWidth=1;fillColor=#dae8fc;strokeColor=#6c8ebf;" parent="_IQ1lsEtTBxcvNftNDux-1" vertex="1">
          <mxGeometry x="45" y="710" width="10" height="380" as="geometry" />
        </mxCell>
        <mxCell id="_IQ1lsEtTBxcvNftNDux-3" value="客户端" style="shape=umlLifeline;perimeter=lifelinePerimeter;container=1;collapsible=0;recursiveResize=0;rounded=0;shadow=0;strokeWidth=1;fillColor=#fff2cc;strokeColor=#d6b656;" parent="1" vertex="1">
          <mxGeometry x="625" y="60" width="100" height="1110" as="geometry" />
        </mxCell>
        <mxCell id="_IQ1lsEtTBxcvNftNDux-5" value="2:更新测评UpdateQuiz:quizId和测评信息" style="verticalAlign=bottom;endArrow=block;shadow=0;strokeWidth=1;fontSize=10;" parent="1" edge="1">
          <mxGeometry relative="1" as="geometry">
            <mxPoint x="74.81034482758628" y="180.00000000000023" as="sourcePoint" />
            <mxPoint x="290" y="180" as="targetPoint" />
          </mxGeometry>
        </mxCell>
        <mxCell id="_IQ1lsEtTBxcvNftNDux-7" value="2.1:更新成功/失败" style="verticalAlign=bottom;endArrow=open;dashed=1;endSize=8;shadow=0;strokeWidth=1;fontSize=10;" parent="1" edge="1">
          <mxGeometry relative="1" as="geometry">
            <mxPoint x="73.85" y="198.0000000000001" as="targetPoint" />
            <mxPoint x="286.16" y="198" as="sourcePoint" />
          </mxGeometry>
        </mxCell>
        <mxCell id="_IQ1lsEtTBxcvNftNDux-10" value="3.查询测评QueryQuiz:quizId" style="verticalAlign=bottom;endArrow=block;shadow=0;strokeWidth=1;fontSize=10;" parent="1" edge="1">
          <mxGeometry relative="1" as="geometry">
            <mxPoint x="74.81034482758628" y="230.0000000000001" as="sourcePoint" />
            <mxPoint x="290" y="229.9999999999999" as="targetPoint" />
          </mxGeometry>
        </mxCell>
        <mxCell id="_IQ1lsEtTBxcvNftNDux-11" value="4.1:删除成功/失败" style="verticalAlign=bottom;endArrow=open;dashed=1;endSize=8;shadow=0;strokeWidth=1;exitX=-0.2;exitY=0.891;exitDx=0;exitDy=0;exitPerimeter=0;fontSize=10;" parent="1" edge="1">
          <mxGeometry relative="1" as="geometry">
            <mxPoint x="73.85" y="298" as="targetPoint" />
            <mxPoint x="286.1599999999998" y="298.1200000000001" as="sourcePoint" />
          </mxGeometry>
        </mxCell>
        <mxCell id="6WqIRxcDjvqxgw-ognjp-2" value="3.1:测评基本信息和页面id" style="verticalAlign=bottom;endArrow=open;dashed=1;endSize=8;shadow=0;strokeWidth=1;exitX=-0.283;exitY=0.36;exitDx=0;exitDy=0;exitPerimeter=0;fontSize=10;" parent="1" edge="1">
          <mxGeometry relative="1" as="geometry">
            <mxPoint x="74.26000000000006" y="248.65999999999997" as="targetPoint" />
            <mxPoint x="285.74000000000007" y="248.86" as="sourcePoint" />
          </mxGeometry>
        </mxCell>
        <mxCell id="6WqIRxcDjvqxgw-ognjp-3" value="4.删除测评DeleteQuiz:quizId" style="verticalAlign=bottom;endArrow=block;entryX=-0.117;entryY=0.545;shadow=0;strokeWidth=1;fontSize=10;entryDx=0;entryDy=0;entryPerimeter=0;" parent="1" edge="1">
          <mxGeometry relative="1" as="geometry">
            <mxPoint x="75.00034482758628" y="280.60000000000025" as="sourcePoint" />
            <mxPoint x="289.0199999999999" y="280" as="targetPoint" />
          </mxGeometry>
        </mxCell>
        <mxCell id="6WqIRxcDjvqxgw-ognjp-4" value="5.测评列表GetQuizList:page,pageSize" style="verticalAlign=bottom;endArrow=block;entryX=-0.117;entryY=0.545;shadow=0;strokeWidth=1;fontSize=10;entryDx=0;entryDy=0;entryPerimeter=0;" parent="1" edge="1">
          <mxGeometry relative="1" as="geometry">
            <mxPoint x="74.56034482758633" y="330.60000000000036" as="sourcePoint" />
            <mxPoint x="288.58" y="330" as="targetPoint" />
          </mxGeometry>
        </mxCell>
        <mxCell id="6WqIRxcDjvqxgw-ognjp-5" value="5.1:total,quiz信息列表" style="verticalAlign=bottom;endArrow=open;dashed=1;endSize=8;shadow=0;strokeWidth=1;exitX=-0.2;exitY=0.891;exitDx=0;exitDy=0;exitPerimeter=0;fontSize=10;" parent="1" edge="1">
          <mxGeometry relative="1" as="geometry">
            <mxPoint x="73.41000000000005" y="348" as="targetPoint" />
            <mxPoint x="285.7199999999998" y="348.1200000000001" as="sourcePoint" />
          </mxGeometry>
        </mxCell>
        <mxCell id="6WqIRxcDjvqxgw-ognjp-7" value="6.创建页面CreatePage:quizId,page信息" style="verticalAlign=bottom;endArrow=block;entryX=-0.117;entryY=0.545;shadow=0;strokeWidth=1;fontSize=10;entryDx=0;entryDy=0;entryPerimeter=0;" parent="1" edge="1">
          <mxGeometry relative="1" as="geometry">
            <mxPoint x="74.99034482758633" y="400.60000000000036" as="sourcePoint" />
            <mxPoint x="289.01" y="400" as="targetPoint" />
          </mxGeometry>
        </mxCell>
        <mxCell id="6WqIRxcDjvqxgw-ognjp-8" value="6.1:pageId" style="verticalAlign=bottom;endArrow=open;dashed=1;endSize=8;shadow=0;strokeWidth=1;exitX=-0.2;exitY=0.891;exitDx=0;exitDy=0;exitPerimeter=0;fontSize=10;" parent="1" edge="1">
          <mxGeometry relative="1" as="geometry">
            <mxPoint x="74.99" y="418" as="targetPoint" />
            <mxPoint x="287.2999999999997" y="418.1200000000001" as="sourcePoint" />
          </mxGeometry>
        </mxCell>
        <mxCell id="6WqIRxcDjvqxgw-ognjp-31" value="7.更新页面UpdatePage:pageId,page信息" style="verticalAlign=bottom;endArrow=block;entryX=-0.117;entryY=0.545;shadow=0;strokeWidth=1;fontSize=10;entryDx=0;entryDy=0;entryPerimeter=0;" parent="1" edge="1">
          <mxGeometry relative="1" as="geometry">
            <mxPoint x="75.00034482758635" y="448.6000000000005" as="sourcePoint" />
            <mxPoint x="289.02" y="448" as="targetPoint" />
          </mxGeometry>
        </mxCell>
        <mxCell id="6WqIRxcDjvqxgw-ognjp-32" value="7.1:更新成功/失败" style="verticalAlign=bottom;endArrow=open;dashed=1;endSize=8;shadow=0;strokeWidth=1;exitX=-0.2;exitY=0.891;exitDx=0;exitDy=0;exitPerimeter=0;fontSize=10;" parent="1" edge="1">
          <mxGeometry relative="1" as="geometry">
            <mxPoint x="74" y="468" as="targetPoint" />
            <mxPoint x="286.3099999999997" y="468.1200000000001" as="sourcePoint" />
          </mxGeometry>
        </mxCell>
        <mxCell id="6WqIRxcDjvqxgw-ognjp-34" value="8.查询页面QueryPage:pageId" style="verticalAlign=bottom;endArrow=block;entryX=-0.117;entryY=0.545;shadow=0;strokeWidth=1;fontSize=10;entryDx=0;entryDy=0;entryPerimeter=0;" parent="1" edge="1">
          <mxGeometry relative="1" as="geometry">
            <mxPoint x="75.00034482758633" y="500.60000000000036" as="sourcePoint" />
            <mxPoint x="289.02" y="500" as="targetPoint" />
          </mxGeometry>
        </mxCell>
        <mxCell id="6WqIRxcDjvqxgw-ognjp-37" value="8.1:页面信息和题目列表" style="verticalAlign=bottom;endArrow=open;dashed=1;endSize=8;shadow=0;strokeWidth=1;exitX=-0.2;exitY=0.891;exitDx=0;exitDy=0;exitPerimeter=0;fontSize=10;" parent="1" edge="1">
          <mxGeometry relative="1" as="geometry">
            <mxPoint x="75" y="520" as="targetPoint" />
            <mxPoint x="287.3099999999997" y="520.1200000000001" as="sourcePoint" />
          </mxGeometry>
        </mxCell>
        <mxCell id="6WqIRxcDjvqxgw-ognjp-38" value="8.开始测评StartQuiz:quizId,userInfo" style="verticalAlign=bottom;endArrow=block;shadow=0;strokeWidth=1;fontSize=10;exitX=0.121;exitY=0.06;exitDx=0;exitDy=0;exitPerimeter=0;" parent="1" edge="1">
          <mxGeometry relative="1" as="geometry">
            <mxPoint x="671.21" y="799.3000000000002" as="sourcePoint" />
            <mxPoint x="300" y="800" as="targetPoint" />
          </mxGeometry>
        </mxCell>
        <mxCell id="6WqIRxcDjvqxgw-ognjp-40" value="" style="points=[];perimeter=orthogonalPerimeter;rounded=0;shadow=0;strokeWidth=1;fillColor=#dae8fc;strokeColor=#6c8ebf;" parent="1" vertex="1">
          <mxGeometry x="670" y="770" width="10" height="380" as="geometry" />
        </mxCell>
        <mxCell id="6WqIRxcDjvqxgw-ognjp-41" value="8.5:第一个页面flowInstanceId,isFlowInstanceEnd,taskInstanceId,questions,pageId" style="verticalAlign=bottom;endArrow=open;dashed=1;endSize=8;shadow=0;strokeWidth=1;fontSize=10;exitX=1.086;exitY=0.8;exitDx=0;exitDy=0;exitPerimeter=0;entryX=0.052;entryY=0.126;entryDx=0;entryDy=0;entryPerimeter=0;" parent="1" edge="1">
          <mxGeometry relative="1" as="geometry">
            <mxPoint x="670" y="895.0000000000001" as="targetPoint" />
            <mxPoint x="300.34000000000015" y="896.57" as="sourcePoint" />
          </mxGeometry>
        </mxCell>
        <mxCell id="6WqIRxcDjvqxgw-ognjp-42" value="9.下一页NextPage:flowInstanceId,taskInstanceId,pageId,answer,userInfo" style="verticalAlign=bottom;endArrow=block;shadow=0;strokeWidth=1;fontSize=10;exitX=0.121;exitY=0.06;exitDx=0;exitDy=0;exitPerimeter=0;" parent="1" edge="1">
          <mxGeometry relative="1" as="geometry">
            <mxPoint x="670" y="945.0000000000002" as="sourcePoint" />
            <mxPoint x="298.79" y="945.7" as="targetPoint" />
          </mxGeometry>
        </mxCell>
        <mxCell id="6WqIRxcDjvqxgw-ognjp-44" value="8.1:开始流程StartFlow:flow" style="verticalAlign=bottom;endArrow=block;shadow=0;strokeWidth=1;fontSize=10;exitX=1.114;exitY=0.736;exitDx=0;exitDy=0;exitPerimeter=0;entryX=-0.11;entryY=0.518;entryDx=0;entryDy=0;entryPerimeter=0;" parent="1" edge="1">
          <mxGeometry relative="1" as="geometry">
            <mxPoint x="300.1400000000001" y="818.72" as="sourcePoint" />
            <mxPoint x="502.9000000000001" y="817.74" as="targetPoint" />
          </mxGeometry>
        </mxCell>
        <mxCell id="6WqIRxcDjvqxgw-ognjp-46" value="8.2:flowInstanceId" style="verticalAlign=bottom;endArrow=open;dashed=1;endSize=8;shadow=0;strokeWidth=1;fontSize=10;" parent="1" edge="1">
          <mxGeometry relative="1" as="geometry">
            <mxPoint x="300" y="838" as="targetPoint" />
            <mxPoint x="505" y="838" as="sourcePoint" />
          </mxGeometry>
        </mxCell>
        <mxCell id="6WqIRxcDjvqxgw-ognjp-47" value="8.3:获取任务实例GetCurrentSimpleTask:flowInstanceId" style="verticalAlign=bottom;endArrow=block;shadow=0;strokeWidth=1;fontSize=10;exitX=1.114;exitY=0.736;exitDx=0;exitDy=0;exitPerimeter=0;entryX=-0.11;entryY=0.518;entryDx=0;entryDy=0;entryPerimeter=0;" parent="1" edge="1">
          <mxGeometry relative="1" as="geometry">
            <mxPoint x="300.1400000000001" y="858.72" as="sourcePoint" />
            <mxPoint x="502.9000000000001" y="857.74" as="targetPoint" />
          </mxGeometry>
        </mxCell>
        <mxCell id="6WqIRxcDjvqxgw-ognjp-48" value="8.4:taskInstanceId,flowInstanceEnd,pageId" style="verticalAlign=bottom;endArrow=open;dashed=1;endSize=8;shadow=0;strokeWidth=1;fontSize=10;" parent="1" edge="1">
          <mxGeometry relative="1" as="geometry">
            <mxPoint x="300" y="878" as="targetPoint" />
            <mxPoint x="505" y="878" as="sourcePoint" />
          </mxGeometry>
        </mxCell>
        <mxCell id="6WqIRxcDjvqxgw-ognjp-51" value="[做题]" style="text;html=1;align=center;verticalAlign=middle;resizable=0;points=[];autosize=1;" parent="1" vertex="1">
          <mxGeometry x="233" y="980" width="50" height="20" as="geometry" />
        </mxCell>
        <mxCell id="6WqIRxcDjvqxgw-ognjp-52" value="9.2:CompleteSimpleTask:taskInstanceId,input" style="verticalAlign=bottom;endArrow=block;shadow=0;strokeWidth=1;fontSize=10;exitX=1.114;exitY=0.736;exitDx=0;exitDy=0;exitPerimeter=0;entryX=-0.11;entryY=0.518;entryDx=0;entryDy=0;entryPerimeter=0;" parent="1" edge="1">
          <mxGeometry relative="1" as="geometry">
            <mxPoint x="301.0000000000001" y="1040.98" as="sourcePoint" />
            <mxPoint x="503.76000000000033" y="1040" as="targetPoint" />
          </mxGeometry>
        </mxCell>
        <mxCell id="6WqIRxcDjvqxgw-ognjp-53" value="9.3:完成成功/失败" style="verticalAlign=bottom;endArrow=open;dashed=1;endSize=8;shadow=0;strokeWidth=1;fontSize=10;" parent="1" edge="1">
          <mxGeometry relative="1" as="geometry">
            <mxPoint x="299" y="1057.49" as="targetPoint" />
            <mxPoint x="504" y="1057.49" as="sourcePoint" />
          </mxGeometry>
        </mxCell>
        <mxCell id="6WqIRxcDjvqxgw-ognjp-54" value="9.4:获取下一个任务GetCurrentSimpleTask:flowInstanceId" style="verticalAlign=bottom;endArrow=block;shadow=0;strokeWidth=1;fontSize=10;exitX=1.114;exitY=0.736;exitDx=0;exitDy=0;exitPerimeter=0;entryX=-0.11;entryY=0.518;entryDx=0;entryDy=0;entryPerimeter=0;" parent="1" edge="1">
          <mxGeometry relative="1" as="geometry">
            <mxPoint x="300" y="1082.47" as="sourcePoint" />
            <mxPoint x="502.7600000000002" y="1081.49" as="targetPoint" />
          </mxGeometry>
        </mxCell>
        <mxCell id="6WqIRxcDjvqxgw-ognjp-55" value="9.5:taskInstanceId,flowInstanceEnd,pageId" style="verticalAlign=bottom;endArrow=open;dashed=1;endSize=8;shadow=0;strokeWidth=1;fontSize=10;" parent="1" edge="1">
          <mxGeometry relative="1" as="geometry">
            <mxPoint x="300" y="1103.49" as="targetPoint" />
            <mxPoint x="505" y="1103.49" as="sourcePoint" />
          </mxGeometry>
        </mxCell>
        <mxCell id="6WqIRxcDjvqxgw-ognjp-62" value="9.6:下一个页面taskInstanceId,isFlowInstanceEnd,pageId,questions" style="verticalAlign=bottom;endArrow=open;dashed=1;endSize=8;shadow=0;strokeWidth=1;fontSize=10;exitX=1.086;exitY=0.8;exitDx=0;exitDy=0;exitPerimeter=0;" parent="1" edge="1">
          <mxGeometry relative="1" as="geometry">
            <mxPoint x="670" y="1126.49" as="targetPoint" />
            <mxPoint x="300.34000000000015" y="1126.0600000000002" as="sourcePoint" />
          </mxGeometry>
        </mxCell>
        <mxCell id="ludzhFDzbn89IQW89gux-1" value="9.删除页面DeletePage:pageId" style="verticalAlign=bottom;endArrow=block;entryX=-0.117;entryY=0.545;shadow=0;strokeWidth=1;fontSize=10;entryDx=0;entryDy=0;entryPerimeter=0;" edge="1" parent="1">
          <mxGeometry relative="1" as="geometry">
            <mxPoint x="75.00034482758633" y="552.6000000000004" as="sourcePoint" />
            <mxPoint x="289.02" y="552" as="targetPoint" />
          </mxGeometry>
        </mxCell>
        <mxCell id="ludzhFDzbn89IQW89gux-2" value="9.1:删除成功/失败" style="verticalAlign=bottom;endArrow=open;dashed=1;endSize=8;shadow=0;strokeWidth=1;exitX=-0.2;exitY=0.891;exitDx=0;exitDy=0;exitPerimeter=0;fontSize=10;" edge="1" parent="1">
          <mxGeometry relative="1" as="geometry">
            <mxPoint x="75" y="572" as="targetPoint" />
            <mxPoint x="287.3099999999997" y="572.1200000000001" as="sourcePoint" />
          </mxGeometry>
        </mxCell>
        <mxCell id="ludzhFDzbn89IQW89gux-3" value="10.创建问题CreateQuestion:quizId,pageId,问题信息" style="verticalAlign=bottom;endArrow=block;entryX=-0.117;entryY=0.545;shadow=0;strokeWidth=1;fontSize=10;entryDx=0;entryDy=0;entryPerimeter=0;" edge="1" parent="1">
          <mxGeometry relative="1" as="geometry">
            <mxPoint x="75.00034482758633" y="610.6000000000004" as="sourcePoint" />
            <mxPoint x="289.02" y="610" as="targetPoint" />
          </mxGeometry>
        </mxCell>
        <mxCell id="ludzhFDzbn89IQW89gux-4" value="10.1:questionId" style="verticalAlign=bottom;endArrow=open;dashed=1;endSize=8;shadow=0;strokeWidth=1;exitX=-0.2;exitY=0.891;exitDx=0;exitDy=0;exitPerimeter=0;fontSize=10;" edge="1" parent="1">
          <mxGeometry relative="1" as="geometry">
            <mxPoint x="75" y="630" as="targetPoint" />
            <mxPoint x="287.3099999999997" y="630.1200000000001" as="sourcePoint" />
          </mxGeometry>
        </mxCell>
        <mxCell id="ludzhFDzbn89IQW89gux-5" value="11.更新问题UpdateQuestion:questionId,问题信息" style="verticalAlign=bottom;endArrow=block;entryX=-0.117;entryY=0.545;shadow=0;strokeWidth=1;fontSize=10;entryDx=0;entryDy=0;entryPerimeter=0;" edge="1" parent="1">
          <mxGeometry relative="1" as="geometry">
            <mxPoint x="75.00034482758633" y="660.6000000000004" as="sourcePoint" />
            <mxPoint x="289.02" y="660" as="targetPoint" />
          </mxGeometry>
        </mxCell>
        <mxCell id="ludzhFDzbn89IQW89gux-6" value="11.1更新成功/失败" style="verticalAlign=bottom;endArrow=open;dashed=1;endSize=8;shadow=0;strokeWidth=1;exitX=-0.2;exitY=0.891;exitDx=0;exitDy=0;exitPerimeter=0;fontSize=10;" edge="1" parent="1">
          <mxGeometry relative="1" as="geometry">
            <mxPoint x="75" y="680" as="targetPoint" />
            <mxPoint x="287.3099999999997" y="680.1200000000001" as="sourcePoint" />
          </mxGeometry>
        </mxCell>
        <mxCell id="ludzhFDzbn89IQW89gux-7" value="12.查询问题QueryQuestion:questionId" style="verticalAlign=bottom;endArrow=block;entryX=-0.117;entryY=0.545;shadow=0;strokeWidth=1;fontSize=10;entryDx=0;entryDy=0;entryPerimeter=0;" edge="1" parent="1">
          <mxGeometry relative="1" as="geometry">
            <mxPoint x="75.00034482758633" y="710.6000000000004" as="sourcePoint" />
            <mxPoint x="289.02" y="710" as="targetPoint" />
          </mxGeometry>
        </mxCell>
        <mxCell id="ludzhFDzbn89IQW89gux-8" value="12.1:问题信息" style="verticalAlign=bottom;endArrow=open;dashed=1;endSize=8;shadow=0;strokeWidth=1;exitX=-0.2;exitY=0.891;exitDx=0;exitDy=0;exitPerimeter=0;fontSize=10;" edge="1" parent="1">
          <mxGeometry relative="1" as="geometry">
            <mxPoint x="75" y="730" as="targetPoint" />
            <mxPoint x="287.3099999999997" y="730.1200000000001" as="sourcePoint" />
          </mxGeometry>
        </mxCell>
        <mxCell id="ludzhFDzbn89IQW89gux-9" value="13.删除问题DeleteQuestion:questionId" style="verticalAlign=bottom;endArrow=block;entryX=-0.117;entryY=0.545;shadow=0;strokeWidth=1;fontSize=10;entryDx=0;entryDy=0;entryPerimeter=0;" edge="1" parent="1">
          <mxGeometry relative="1" as="geometry">
            <mxPoint x="75.00034482758633" y="760.6000000000004" as="sourcePoint" />
            <mxPoint x="289.02" y="760" as="targetPoint" />
          </mxGeometry>
        </mxCell>
        <mxCell id="ludzhFDzbn89IQW89gux-10" value="13.1:删除成功/失败" style="verticalAlign=bottom;endArrow=open;dashed=1;endSize=8;shadow=0;strokeWidth=1;exitX=-0.2;exitY=0.891;exitDx=0;exitDy=0;exitPerimeter=0;fontSize=10;" edge="1" parent="1">
          <mxGeometry relative="1" as="geometry">
            <mxPoint x="75" y="780" as="targetPoint" />
            <mxPoint x="287.3099999999997" y="780.1200000000001" as="sourcePoint" />
          </mxGeometry>
        </mxCell>
        <mxCell id="ludzhFDzbn89IQW89gux-11" value="14.上线测评OnlineQuiz:quizId" style="verticalAlign=bottom;endArrow=block;entryX=-0.117;entryY=0.545;shadow=0;strokeWidth=1;fontSize=10;entryDx=0;entryDy=0;entryPerimeter=0;" edge="1" parent="1">
          <mxGeometry relative="1" as="geometry">
            <mxPoint x="75.00034482758633" y="820.6000000000004" as="sourcePoint" />
            <mxPoint x="289.02" y="820" as="targetPoint" />
          </mxGeometry>
        </mxCell>
        <mxCell id="ludzhFDzbn89IQW89gux-12" value="14.1:上线成功/失败" style="verticalAlign=bottom;endArrow=open;dashed=1;endSize=8;shadow=0;strokeWidth=1;exitX=-0.2;exitY=0.891;exitDx=0;exitDy=0;exitPerimeter=0;fontSize=10;" edge="1" parent="1">
          <mxGeometry relative="1" as="geometry">
            <mxPoint x="75" y="840" as="targetPoint" />
            <mxPoint x="287.3099999999997" y="840.1200000000001" as="sourcePoint" />
          </mxGeometry>
        </mxCell>
        <mxCell id="ludzhFDzbn89IQW89gux-13" value="15.下线测评OfflineQuiz:quizId" style="verticalAlign=bottom;endArrow=block;entryX=-0.117;entryY=0.545;shadow=0;strokeWidth=1;fontSize=10;entryDx=0;entryDy=0;entryPerimeter=0;" edge="1" parent="1">
          <mxGeometry relative="1" as="geometry">
            <mxPoint x="75.00034482758633" y="870.6000000000004" as="sourcePoint" />
            <mxPoint x="289.02" y="870" as="targetPoint" />
          </mxGeometry>
        </mxCell>
        <mxCell id="ludzhFDzbn89IQW89gux-14" value="15.1:下线成功/失败" style="verticalAlign=bottom;endArrow=open;dashed=1;endSize=8;shadow=0;strokeWidth=1;exitX=-0.2;exitY=0.891;exitDx=0;exitDy=0;exitPerimeter=0;fontSize=10;" edge="1" parent="1">
          <mxGeometry relative="1" as="geometry">
            <mxPoint x="75.00000000000011" y="890" as="targetPoint" />
            <mxPoint x="287.3099999999997" y="890.1200000000001" as="sourcePoint" />
          </mxGeometry>
        </mxCell>
        <mxCell id="ludzhFDzbn89IQW89gux-16" value="9.1根据answer构造task input" style="verticalAlign=bottom;endArrow=block;shadow=0;strokeWidth=1;fontSize=10;exitX=1.114;exitY=0.736;exitDx=0;exitDy=0;exitPerimeter=0;entryX=1.017;entryY=0.78;entryDx=0;entryDy=0;entryPerimeter=0;" edge="1" parent="1">
          <mxGeometry relative="1" as="geometry">
            <mxPoint x="300" y="962.98" as="sourcePoint" />
            <mxPoint x="300.1700000000001" y="1002.4000000000001" as="targetPoint" />
            <Array as="points">
              <mxPoint x="350" y="963" />
              <mxPoint x="350" y="1002" />
            </Array>
          </mxGeometry>
        </mxCell>
      </root>
    </mxGraphModel>
  </diagram>
</mxfile>
